<svg width="25" height="25" viewBox="0 0 25 25" fill="none" xmlns="http://www.w3.org/2000/svg">
<g clip-path="url(#clip0_4_8)">
<path d="M22.9167 4.16667H17.7083V2.08333C17.7083 1.5308 17.4889 1.00089 17.0982 0.610194C16.7074 0.219493 16.1775 0 15.625 0L9.37501 0C8.82248 0 8.29257 0.219493 7.90187 0.610194C7.51117 1.00089 7.29168 1.5308 7.29168 2.08333V4.16667H2.08334V6.25H4.16668V21.875C4.16668 22.7038 4.49592 23.4987 5.08197 24.0847C5.66802 24.6708 6.46288 25 7.29168 25H17.7083C18.5371 25 19.332 24.6708 19.9181 24.0847C20.5041 23.4987 20.8333 22.7038 20.8333 21.875V6.25H22.9167V4.16667ZM9.37501 2.08333H15.625V4.16667H9.37501V2.08333ZM18.75 21.875C18.75 22.1513 18.6403 22.4162 18.4449 22.6116C18.2496 22.8069 17.9846 22.9167 17.7083 22.9167H7.29168C7.01541 22.9167 6.75046 22.8069 6.55511 22.6116C6.35976 22.4162 6.25001 22.1513 6.25001 21.875V6.25H18.75V21.875Z" fill="#F5E9CF"/>
<path d="M11.4583 10.4167H9.375V18.75H11.4583V10.4167Z" fill="#F5E9CF"/>
<path d="M15.625 10.4167H13.5417V18.75H15.625V10.4167Z" fill="#F5E9CF"/>
</g>
<defs>
<clipPath id="clip0_4_8">
<rect width="25" height="25" fill="white"/>
</clipPath>
</defs>
</svg>
