<svg width="25" height="25" viewBox="0 0 25 25" fill="none" xmlns="http://www.w3.org/2000/svg">
<g clip-path="url(#clip0_4_5)">
<path d="M19.4333 0.968723L6.73333 13.6687C6.24827 14.1512 5.86373 14.725 5.60196 15.3571C5.34019 15.9892 5.2064 16.6669 5.20833 17.351V18.75C5.20833 19.0262 5.31808 19.2912 5.51343 19.4865C5.70878 19.6819 5.97373 19.7916 6.25 19.7916H7.64896C8.33309 19.7936 9.0108 19.6598 9.64287 19.398C10.2749 19.1362 10.8488 18.7517 11.3313 18.2666L24.0313 5.56664C24.64 4.9564 24.9819 4.12963 24.9819 3.26768C24.9819 2.40573 24.64 1.57896 24.0313 0.968723C23.4122 0.376946 22.5887 0.0466919 21.7323 0.0466919C20.8759 0.0466919 20.0524 0.376946 19.4333 0.968723ZM22.5583 4.09372L9.85833 16.7937C9.27096 17.3775 8.47709 17.7061 7.64896 17.7083H7.29167V17.351C7.29384 16.5229 7.62247 15.729 8.20625 15.1416L20.9063 2.44164C21.1287 2.22909 21.4246 2.11049 21.7323 2.11049C22.04 2.11049 22.3358 2.22909 22.5583 2.44164C22.777 2.66093 22.8998 2.95799 22.8998 3.26768C22.8998 3.57738 22.777 3.87444 22.5583 4.09372Z" fill="#F5E9CF"/>
<path d="M23.9583 9.35313C23.6821 9.35313 23.4171 9.46287 23.2218 9.65822C23.0264 9.85357 22.9167 10.1185 22.9167 10.3948V15.625H18.75C17.9212 15.625 17.1263 15.9542 16.5403 16.5403C15.9542 17.1263 15.625 17.9212 15.625 18.75V22.9167H5.20833C4.37953 22.9167 3.58468 22.5874 2.99862 22.0014C2.41257 21.4153 2.08333 20.6205 2.08333 19.7917V5.20833C2.08333 4.37953 2.41257 3.58468 2.99862 2.99862C3.58468 2.41257 4.37953 2.08333 5.20833 2.08333H14.6271C14.9034 2.08333 15.1683 1.97359 15.3637 1.77824C15.559 1.58289 15.6688 1.31793 15.6688 1.04167C15.6688 0.7654 15.559 0.500448 15.3637 0.305097C15.1683 0.109747 14.9034 0 14.6271 0L5.20833 0C3.82751 0.00165402 2.50371 0.550919 1.52731 1.52731C0.550919 2.50371 0.00165402 3.82751 0 5.20833L0 19.7917C0.00165402 21.1725 0.550919 22.4963 1.52731 23.4727C2.50371 24.4491 3.82751 24.9983 5.20833 25H17.024C17.7082 25.002 18.3861 24.8682 19.0184 24.6064C19.6506 24.3446 20.2247 23.9601 20.7073 23.475L23.474 20.7063C23.9591 20.2238 24.3438 19.65 24.6057 19.0179C24.8677 18.3859 25.0017 17.7081 25 17.024V10.3948C25 10.1185 24.8903 9.85357 24.6949 9.65822C24.4996 9.46287 24.2346 9.35313 23.9583 9.35313ZM19.2344 22.0021C18.8156 22.4198 18.2861 22.709 17.7083 22.8354V18.75C17.7083 18.4737 17.8181 18.2088 18.0134 18.0134C18.2088 17.8181 18.4737 17.7083 18.75 17.7083H22.8385C22.7097 18.2849 22.4209 18.8135 22.0052 19.2333L19.2344 22.0021Z" fill="#F5E9CF"/>
</g>
<defs>
<clipPath id="clip0_4_5">
<rect width="25" height="25" fill="white"/>
</clipPath>
</defs>
</svg>
