<svg width="462" height="512" viewBox="0 0 462 512" fill="none" xmlns="http://www.w3.org/2000/svg">
<path d="M9.283 384C26.929 414.626 66.062 425.148 96.688 407.502C96.709 407.49 96.729 407.478 96.75 407.466L106.243 401.983C124.163 417.315 144.761 429.205 167 437.055V448C167 483.346 195.654 512 231 512C266.346 512 295 483.346 295 448V437.056C317.242 429.193 337.841 417.289 355.757 401.941L365.293 407.445C395.926 425.118 435.087 414.612 452.76 383.978C470.433 353.345 459.927 314.184 429.293 296.511L419.821 291.05C424.085 267.849 424.085 244.065 419.821 220.863L429.293 215.402C459.926 197.729 470.433 158.569 452.76 127.935C435.087 97.302 395.927 86.795 365.293 104.468L355.8 109.951C337.862 94.638 317.25 82.77 295 74.944V64C295 28.654 266.346 0 231 0C195.654 0 167 28.654 167 64V74.944C144.758 82.807 124.159 94.711 106.243 110.059L96.707 104.534C66.073 86.86 26.913 97.367 9.24 128C-8.433 158.633 2.073 197.794 32.707 215.467L42.179 220.928C37.915 244.129 37.915 267.913 42.179 291.115L32.707 296.576C2.158 314.296 -8.314 353.38 9.283 384ZM231 170.667C278.128 170.667 316.333 208.872 316.333 256C316.333 303.128 278.128 341.333 231 341.333C183.872 341.333 145.667 303.128 145.667 256C145.667 208.872 183.872 170.667 231 170.667Z" fill="#F5E9CF"/>
</svg>
